<svg width="64" height="70" viewBox="0 0 64 70" fill="none" xmlns="http://www.w3.org/2000/svg">
<path fill-rule="evenodd" clip-rule="evenodd" d="M1.375 30.625L18.0027 6.29676C21.3276 2.3069 26.2529 0 31.4466 0H32V17.5L49.5 21.875L62.625 43.75L59.0703 49.0822C55.8245 53.9507 50.3606 56.875 44.5094 56.875H36.375L27.625 70H18.875L1.375 30.625ZM40.75 39.375C43.1663 39.375 45.125 37.4163 45.125 35C45.125 32.5838 43.1663 30.625 40.75 30.625C38.3337 30.625 36.375 32.5838 36.375 35C36.375 37.4163 38.3337 39.375 40.75 39.375Z" fill="white" stroke="black"/>
<path d="M40.75 2.03822V10.6682L49.5 12.8557V0H48.9466C46.0547 0 43.2455 0.715317 40.75 2.03822Z" fill="white" stroke="black"/>
</svg>
